# xmcd
#
# Track frame offsets:
#	150
#	6310
#	22932
#	48915
#	66700
#	91490
#	102242
#	122762
#	143817
#	194275
#	209265
#	226557
#	267150
#	271510
#	275307
#	293342
#
# Disc length: 4334 seconds
#
# Revision: 1
# Processed by: cddbd v1.4PL0 Copyright (c) Steve Scherf et al.
# Submitted via: EasyCDDAExtractor 5.1.0
#
DISCID=d810ec10
DTITLE=Massenet Jules - Manon
DYEAR=1900
DGENRE=
TTITLE0=01 Introduction
TTITLE1=02 prelude
TTITLE2=03 Hola, He Monsieur L'Hotelier
TTITLE3=04 Allez a L'auberge voisine
TTITLE4=05 Je suis encore tout etourdie
TTITLE5=06 Revenez Guillot Revenez
TTITLE6=07  Regardez moi bien dans les yeux
TTITLE7=08 VoyonS Manon plu de chimères
TTITLE8=09 Et je sais votre nom
TTITLE9=10 prelude
TTITLE10=11 On l apelle manon
TTITLE11=12 Enfin les amomureux
TTITLE12=13 Allins il le faut
TTITLE13=14 Je ne suis que faibless
TTITLE14=15 Adieu notre petite table
TTITLE15=16 En fermant les yeux - Des Grieux
EXTD=
EXTT0=
EXTT1=
EXTT2=
EXTT3=
EXTT4=
EXTT5=
EXTT6=
EXTT7=
EXTT8=
EXTT9=
EXTT10=
EXTT11=
EXTT12=
EXTT13=
EXTT14=
EXTT15=
PLAYORDER=
